<mxfile host="65bd71144e">
    <diagram id="mXrc2UAlqwt3W7ajEmVp" name="Page-1">
        <mxGraphModel dx="640" dy="664" grid="1" gridSize="10" guides="1" tooltips="1" connect="1" arrows="1" fold="1" page="1" pageScale="1" pageWidth="827" pageHeight="1169" math="0" shadow="0">
            <root>
                <mxCell id="0"/>
                <mxCell id="1" parent="0"/>
                <mxCell id="2" value="&lt;h1&gt;Cas isolés: exo 6&lt;/h1&gt;&lt;p dir=&quot;auto&quot; style=&quot;box-sizing: border-box ; margin-top: 0px ; margin-bottom: 16px ; color: rgb(201 , 209 , 217) ; font-family: , &amp;#34;blinkmacsystemfont&amp;#34; , &amp;#34;segoe ui&amp;#34; , &amp;#34;helvetica&amp;#34; , &amp;#34;arial&amp;#34; , sans-serif , &amp;#34;apple color emoji&amp;#34; , &amp;#34;segoe ui emoji&amp;#34; ; font-size: 16px ; background-color: rgb(13 , 17 , 23)&quot;&gt;&lt;span style=&quot;color: rgb(240 , 246 , 252) ; font-family: , &amp;#34;blinkmacsystemfont&amp;#34; , &amp;#34;segoe ui&amp;#34; , &amp;#34;helvetica&amp;#34; , &amp;#34;arial&amp;#34; , sans-serif , &amp;#34;apple color emoji&amp;#34; , &amp;#34;segoe ui emoji&amp;#34; ; background-color: rgb(22 , 27 , 34)&quot;&gt;Notre fournisseur d'email nous permet d'attacher de fichiers à nos mails. Il doit vérifier la taille et l'extension de chaque fichier et scanner (antivirus) les fichiers .docx et .xlsx&lt;/span&gt;&lt;br&gt;&lt;/p&gt;" style="text;html=1;strokeColor=none;fillColor=none;spacing=5;spacingTop=-20;whiteSpace=wrap;overflow=hidden;rounded=0;" vertex="1" parent="1">
                    <mxGeometry x="40" y="40" width="690" height="120" as="geometry"/>
                </mxCell>
                <mxCell id="5" value="" style="edgeStyle=none;html=1;" edge="1" parent="1" source="3" target="4">
                    <mxGeometry relative="1" as="geometry"/>
                </mxCell>
                <mxCell id="3" value="Actor" style="shape=umlActor;verticalLabelPosition=bottom;verticalAlign=top;html=1;" vertex="1" parent="1">
                    <mxGeometry x="50" y="220" width="30" height="60" as="geometry"/>
                </mxCell>
                <mxCell id="4" value="rediger&amp;nbsp;&lt;br&gt;un mail" style="ellipse;whiteSpace=wrap;html=1;verticalAlign=top;" vertex="1" parent="1">
                    <mxGeometry x="260" y="190" width="120" height="60" as="geometry"/>
                </mxCell>
                <mxCell id="6" value="rajouter&lt;br&gt;une piece&lt;br&gt;jointe" style="ellipse;whiteSpace=wrap;html=1;verticalAlign=top;" vertex="1" parent="1">
                    <mxGeometry x="540" y="230" width="120" height="60" as="geometry"/>
                </mxCell>
                <mxCell id="8" value="&amp;lt;&amp;lt;extend&amp;gt;&amp;gt;" style="html=1;verticalAlign=bottom;labelBackgroundColor=none;endArrow=open;endFill=0;dashed=1;exitX=0.004;exitY=0.363;exitDx=0;exitDy=0;exitPerimeter=0;entryX=1;entryY=0.5;entryDx=0;entryDy=0;" edge="1" parent="1" source="6" target="4">
                    <mxGeometry width="160" relative="1" as="geometry">
                        <mxPoint x="370" y="340" as="sourcePoint"/>
                        <mxPoint x="530" y="340" as="targetPoint"/>
                    </mxGeometry>
                </mxCell>
                <mxCell id="9" value="" style="fontStyle=1;align=center;verticalAlign=top;childLayout=stackLayout;horizontal=1;horizontalStack=0;resizeParent=1;resizeParentMax=0;resizeLast=0;marginBottom=0;" vertex="1" parent="1">
                    <mxGeometry x="40" y="450" width="110" height="38" as="geometry"/>
                </mxCell>
                <mxCell id="10" value="Systeme" style="html=1;align=left;spacingLeft=4;verticalAlign=middle;strokeColor=none;fillColor=none;fontStyle=1" vertex="1" parent="9">
                    <mxGeometry width="110" height="30" as="geometry"/>
                </mxCell>
                <mxCell id="11" value="" style="shape=ellipse;" vertex="1" parent="10">
                    <mxGeometry x="1" width="20" height="16" relative="1" as="geometry">
                        <mxPoint x="-25" y="7" as="offset"/>
                    </mxGeometry>
                </mxCell>
                <mxCell id="12" value="" style="line;strokeWidth=1;fillColor=none;align=left;verticalAlign=middle;spacingTop=-1;spacingLeft=3;spacingRight=3;rotatable=0;labelPosition=right;points=[];portConstraint=eastwest;" vertex="1" parent="9">
                    <mxGeometry y="30" width="110" height="8" as="geometry"/>
                </mxCell>
                <mxCell id="15" value="Scanner&amp;nbsp;&lt;br&gt;la piece jointe" style="ellipse;whiteSpace=wrap;html=1;verticalAlign=top;" vertex="1" parent="1">
                    <mxGeometry x="260" y="570" width="120" height="60" as="geometry"/>
                </mxCell>
                <mxCell id="29" style="edgeStyle=none;html=1;exitX=0;exitY=0.5;exitDx=0;exitDy=0;entryX=0.308;entryY=0.444;entryDx=0;entryDy=0;entryPerimeter=0;endArrow=none;endFill=0;" edge="1" parent="1" source="18" target="12">
                    <mxGeometry relative="1" as="geometry">
                        <Array as="points">
                            <mxPoint x="74" y="680"/>
                        </Array>
                    </mxGeometry>
                </mxCell>
                <mxCell id="18" value="Vérifier&amp;nbsp;&lt;br&gt;la taille&amp;nbsp;&lt;br&gt;de la piece jointe" style="ellipse;whiteSpace=wrap;html=1;verticalAlign=top;" vertex="1" parent="1">
                    <mxGeometry x="510" y="650" width="120" height="60" as="geometry"/>
                </mxCell>
                <mxCell id="20" value="&amp;lt;&amp;lt;include&amp;gt;&amp;gt;" style="html=1;verticalAlign=bottom;labelBackgroundColor=none;endArrow=open;endFill=0;dashed=1;exitX=0.197;exitY=0.968;exitDx=0;exitDy=0;entryX=0.5;entryY=0;entryDx=0;entryDy=0;exitPerimeter=0;" edge="1" parent="1" source="6" target="18">
                    <mxGeometry width="160" relative="1" as="geometry">
                        <mxPoint x="575.1435931288073" y="370.42320343559635" as="sourcePoint"/>
                        <mxPoint x="439.99640687119285" y="487.9967965644036" as="targetPoint"/>
                    </mxGeometry>
                </mxCell>
                <mxCell id="24" style="edgeStyle=none;html=1;exitX=0;exitY=0.5;exitDx=0;exitDy=0;endArrow=none;endFill=0;" edge="1" parent="1" source="21" target="10">
                    <mxGeometry relative="1" as="geometry"/>
                </mxCell>
                <mxCell id="21" value="Vérifier&amp;nbsp;&lt;br&gt;l' extension de la piece jointe" style="ellipse;whiteSpace=wrap;html=1;verticalAlign=top;" vertex="1" parent="1">
                    <mxGeometry x="260" y="310" width="120" height="60" as="geometry"/>
                </mxCell>
                <mxCell id="23" value="&amp;lt;&amp;lt;include&amp;gt;&amp;gt;" style="html=1;verticalAlign=bottom;labelBackgroundColor=none;endArrow=open;endFill=0;dashed=1;exitX=0.013;exitY=0.658;exitDx=0;exitDy=0;entryX=1;entryY=0.5;entryDx=0;entryDy=0;exitPerimeter=0;" edge="1" parent="1" source="6" target="21">
                    <mxGeometry width="160" relative="1" as="geometry">
                        <mxPoint x="490.00359312880727" y="290.0032034355964" as="sourcePoint"/>
                        <mxPoint x="454.85640687119275" y="397.57679656440365" as="targetPoint"/>
                    </mxGeometry>
                </mxCell>
                <mxCell id="28" style="edgeStyle=none;html=1;exitX=0.5;exitY=0;exitDx=0;exitDy=0;entryX=0.565;entryY=1.005;entryDx=0;entryDy=0;entryPerimeter=0;endArrow=block;endFill=0;" edge="1" parent="1" source="25" target="21">
                    <mxGeometry relative="1" as="geometry"/>
                </mxCell>
                <mxCell id="25" value=".docx&lt;br&gt;ou&amp;nbsp;&lt;br&gt;.xlsw" style="ellipse;whiteSpace=wrap;html=1;verticalAlign=top;" vertex="1" parent="1">
                    <mxGeometry x="260" y="400" width="120" height="60" as="geometry"/>
                </mxCell>
                <mxCell id="27" style="edgeStyle=none;html=1;exitX=0.5;exitY=0;exitDx=0;exitDy=0;endArrow=block;endFill=0;" edge="1" parent="1" source="26" target="21">
                    <mxGeometry relative="1" as="geometry"/>
                </mxCell>
                <mxCell id="26" value="autre" style="ellipse;whiteSpace=wrap;html=1;verticalAlign=top;" vertex="1" parent="1">
                    <mxGeometry x="410" y="410" width="80" height="40" as="geometry"/>
                </mxCell>
                <mxCell id="31" value="&amp;lt;&amp;lt;include&amp;gt;&amp;gt;" style="html=1;verticalAlign=bottom;labelBackgroundColor=none;endArrow=open;endFill=0;dashed=1;exitX=0.197;exitY=0.968;exitDx=0;exitDy=0;exitPerimeter=0;" edge="1" parent="1" target="15">
                    <mxGeometry width="160" relative="1" as="geometry">
                        <mxPoint x="316.8200000000001" y="460" as="sourcePoint"/>
                        <mxPoint x="317" y="540" as="targetPoint"/>
                    </mxGeometry>
                </mxCell>
            </root>
        </mxGraphModel>
    </diagram>
</mxfile>